Coordinates
version=1
nRows=10
nColumns=63
inDegrees=yes

Units are S.I. units (second, meters, Newtons, ...)
If the header above contains a line with 'inDegrees', this indicates whether rotational values are in degrees (yes) or radians (no).

endheader
time	pelvis_tilt	pelvis_list	pelvis_rotation	pelvis_tx	pelvis_ty	pelvis_tz	hip_flexion_r	hip_adduction_r	hip_rotation_r	knee_angle_r	knee_angle_r_beta	ankle_angle_r	subtalar_angle_r	mtp_angle_r	hip_flexion_l	hip_adduction_l	hip_rotation_l	knee_angle_l	knee_angle_l_beta	ankle_angle_l	subtalar_angle_l	mtp_angle_l	L5_S1_Flex_Ext	L5_S1_Lat_Bending	L5_S1_axial_rotation	L4_L5_Flex_Ext	L4_L5_Lat_Bending	L4_L5_axial_rotation	L3_L4_Flex_Ext	L3_L4_Lat_Bending	L3_L4_axial_rotation	L2_L3_Flex_Ext	L2_L3_Lat_Bending	L2_L3_axial_rotation	L1_L2_Flex_Ext	L1_L2_Lat_Bending	L1_L2_axial_rotation	L1_T12_Flex_Ext	L1_T12_Lat_Bending	L1_T12_axial_rotation	Abs_r3	Abs_r2	Abs_r1	Abs_t1	Abs_t2	neck_flexion	neck_bending	neck_rotation	arm_flex_r	arm_add_r	arm_rot_r	elbow_flex_r	pro_sup_r	wrist_flex_r	wrist_dev_r	arm_flex_l	arm_add_l	arm_rot_l	elbow_flex_l	pro_sup_l	wrist_flex_l	wrist_dev_l
      5.03333333	      4.80874837	    -10.90953111	    102.17388873	      0.21685773	      0.69318752	      0.68508007	     10.17679658	     -0.20189855	    -16.74152128	      5.16663601	      0.09017481	      6.14021842	      2.18212695	      0.00000000	     14.61775107	     -2.52289571	     -1.49003932	      7.36760457	      0.12858896	     20.47465931	     10.36883219	      0.00000000	      0.08601816	      0.93169202	     -0.96015918	      0.15974432	      1.23915038	     -1.02016913	      0.14131923	      2.26531597	     -1.02016913	      0.09831015	      2.26531597	     -0.84013928	      0.07987646	      1.89990636	     -0.78012933	      0.04915078	      1.44319093	     -0.72011939	      0.61441911	     10.53948642	     -5.34011731	      0.00000000	      0.00000000	     28.13292638	    -18.47379584	      2.16033407	     14.08218841	    -13.91198977	    166.28230103	      2.61911332	      9.71691358	     -0.55195454	     -2.14745127	     -1.65682844	    -11.69503337	    -23.20940117	    138.89560448	     87.47526718	     -7.04877827	      2.82447026
      5.05000000	      4.47319464	    -10.91936015	    101.22183545	      0.21834906	      0.69350857	      0.68535617	     10.30425517	     -0.41896815	    -16.65073863	      5.41997306	      0.09459638	      6.19009877	      2.87936239	      0.00000000	     14.34451944	     -2.41060657	     -2.02212773	      7.17490604	      0.12522573	     19.94970878	      9.60214086	      0.00000000	      0.05131257	      0.90721225	     -0.76147070	      0.09529257	      1.20659230	     -0.80906262	      0.08430142	      2.20579587	     -0.80906262	      0.05864514	      2.20579587	     -0.66628686	      0.04764885	      1.84998723	     -0.61869495	      0.02932000	      1.40527178	     -0.57110303	      0.36652056	     10.26256644	     -4.23507161	      0.00000000	      0.00000000	     28.10713129	    -18.16655238	      1.08543173	     13.78286376	    -13.86631920	    169.39832283	      1.92291637	     12.08681677	     -1.43004677	     -2.40368919	     -2.35892603	    -12.54162065	    -25.14028856	    138.38472517	     87.29567608	     -6.86683525	      3.24661522
      5.06666667	      4.32648507	    -10.88317526	    100.94357309	      0.21931051	      0.69384625	      0.68608266	     10.29911342	     -0.46837800	    -16.69422607	      5.46509608	      0.09538392	      5.90680541	      2.99373210	      0.00000000	     14.38829358	     -2.39073099	     -2.40658045	      7.44801797	      0.12999244	     19.51152990	      9.29963524	      0.00000000	      0.00714378	      0.90046064	     -0.68629298	      0.01326671	      1.19761266	     -0.72918629	      0.01173651	      2.18938001	     -0.72918629	      0.00816462	      2.18938001	     -0.60050636	      0.00663371	      1.83621934	     -0.55761305	      0.00408195	      1.39481354	     -0.51471973	      0.05102729	     10.18619089	     -3.81695567	      0.00000000	      0.00000000	     28.04470850	    -17.50293438	      0.06935619	     13.51368279	    -13.88713962	    169.58785826	      1.39377947	     12.36367570	     -1.55206116	     -2.32470385	     -3.36312436	    -13.17616797	    -26.97254291	    137.97702798	     87.04280053	     -7.20422629	      3.18991177
      5.08333333	      3.66048452	    -11.02713404	     99.53846091	      0.22166774	      0.69385763	      0.68617144	     10.56016509	     -0.94002564	    -15.71926523	      5.73349296	      0.10006833	      6.15473102	      3.93936316	      0.00000000	     14.22365582	     -2.05400196	     -3.65199257	      7.49732490	      0.13085300	     19.01230177	      8.57782560	      0.00000000	     -0.03329900	      0.82600944	     -0.49643895	     -0.06183957	      1.09859256	     -0.52746638	     -0.05470692	      2.00835936	     -0.52746638	     -0.03805742	      2.00835936	     -0.43438408	     -0.03092145	      1.68439846	     -0.40335664	     -0.01902705	      1.27948863	     -0.37232921	     -0.23785140	      9.34398403	     -2.76104449	      0.00000000	      0.00000000	     27.87605841	    -16.24513994	     -0.99275118	     13.58951188	    -13.53569042	    171.19789633	      1.08232247	     15.37423914	     -2.38666078	     -2.43098218	     -4.82193854	    -13.65008844	    -29.42546910	    137.86688630	     86.23877246	     -6.96770542	      3.05906946
      5.10000000	      3.51562949	    -10.98290147	     99.17512564	      0.22274537	      0.69417951	      0.68671091	     10.52455070	     -0.95571919	    -15.32381556	      5.67949852	      0.09912595	      5.85339607	      4.27027800	      0.00000000	     14.27282008	     -2.05886281	     -4.24525160	      7.85763431	      0.13714159	     18.61133388	      8.31156305	      0.00000000	     -0.08965170	      0.81633944	     -0.47509102	     -0.16649216	      1.08573146	     -0.50478421	     -0.14728877	      1.98484772	     -0.50478421	     -0.10246292	      1.98484772	     -0.41570464	     -0.08325057	      1.66467939	     -0.38601146	     -0.05122698	      1.26450980	     -0.35631827	     -0.64037310	      9.23459504	     -2.64231374	      0.00000000	      0.00000000	     27.56691682	    -15.24784510	     -2.09051637	     13.72784909	    -13.45840665	    171.12605307	      0.91111406	     15.66653182	     -2.55936622	     -2.46749080	     -6.13801102	    -13.77710850	    -31.26615380	    137.69604292	     85.91061772	     -7.37442074	      2.80743057
      5.11666667	      2.91570453	    -11.10271316	     97.70071843	      0.22516237	      0.69435041	      0.68661431	     10.78751500	     -1.29802118	    -13.53859329	      5.79450071	      0.10113312	      5.89025786	      4.51462495	      0.00000000	     14.08332778	     -1.86176638	     -6.30087142	      7.85560840	      0.13710623	     18.24848952	      8.84027745	      0.00000000	     -0.12785714	      0.75681822	     -0.32854115	     -0.23744349	      1.00656824	     -0.34907497	     -0.21005649	      1.84012783	     -0.34907497	     -0.14612792	      1.84012783	     -0.28747350	     -0.11872814	      1.54330372	     -0.26693968	     -0.07305757	      1.17231143	     -0.24640586	     -0.91327076	      8.56127911	     -1.82724729	      0.00000000	      0.00000000	     27.01230605	    -13.81747472	     -2.19045760	     14.01629034	    -13.13738239	    171.63201019	      0.79367000	     18.34703242	     -3.14884364	     -2.52120502	     -7.65463391	    -13.99743893	    -33.10082551	    137.49700185	     85.13059790	     -7.71754923	      2.20579393
      5.13333333	      2.62299863	    -11.14296781	     96.78234924	      0.22705802	      0.69471650	      0.68639391	     10.80412176	     -1.28955879	    -11.25166296	      5.48508452	      0.09573278	      5.38481687	      3.19949047	      0.00000000	     13.99450365	     -1.97017439	     -9.01539826	      8.02886274	      0.14013009	     18.18944729	     11.08237881	      0.00000000	     -0.15506411	      0.73405878	     -0.26485843	     -0.28796955	      0.97629818	     -0.28141208	     -0.25475482	      1.78479052	     -0.28141208	     -0.17722277	      1.78479052	     -0.23175113	     -0.14399253	      1.49689267	     -0.21519748	     -0.08860363	      1.13705705	     -0.19864382	     -1.10760740	      8.30381975	     -1.47306314	      0.00000000	      0.00000000	     26.21729771	    -13.00945983	     -2.58990684	     14.25257321	    -12.92787425	    169.72458031	      0.77667873	     22.34695173	     -3.67137962	     -2.68926212	     -8.85346079	    -14.08401736	    -34.26777413	    137.25696963	     85.15440925	     -8.42162270	      2.31234359
      5.15000000	      2.28506389	    -11.20863641	     95.68037868	      0.22889596	      0.69512453	      0.68571437	     10.89116357	     -1.38760703	     -9.65826541	      5.28286024	      0.09220331	      5.17540301	      3.13938416	      0.00000000	     13.75238586	     -1.92126313	    -10.50571484	      7.90895805	      0.13803736	     17.88068498	     11.34703890	      0.00000000	     -0.16651470	      0.71405860	     -0.21862409	     -0.30923445	      0.94969794	     -0.23228810	     -0.27356700	      1.73616208	     -0.23228810	     -0.19030965	      1.73616208	     -0.19129608	     -0.15462555	      1.45610830	     -0.17763207	     -0.09514650	      1.10607677	     -0.16396807	     -1.18939786	      8.07757370	     -1.21592160	      0.00000000	      0.00000000	     25.47482114	    -12.17764236	     -2.21033977	     14.60646519	    -12.72979833	    170.81598959	      0.80503695	     22.62965987	     -3.84756749	     -2.45608535	    -10.02787943	    -14.02304502	    -35.36034342	    137.10203096	     85.37139061	     -8.95234507	      3.08120864
      5.16666667	      2.00931257	    -11.30733366	     94.65406345	      0.23064635	      0.69546395	      0.68480223	     10.95707142	     -1.41176869	     -7.91363296	      4.96081300	      0.08658252	      4.85671115	      2.51988716	      0.00000000	     13.51943041	     -1.90795636	    -11.84185201	      7.71616115	      0.13467242	     17.72432236	     11.65366519	      0.00000000	     -0.16494968	      0.70383086	     -0.20752867	     -0.30632806	      0.93609505	     -0.22049922	     -0.27099583	      1.71129436	     -0.22049922	     -0.18852099	      1.71129436	     -0.18158759	     -0.15317228	      1.43525189	     -0.16861705	     -0.09425225	      1.09023401	     -0.15564651	     -1.17821909	      7.96187548	     -1.15421222	      0.00000000	      0.00000000	     24.98609404	    -11.53487630	     -1.39136998	     14.96556958	    -12.52513303	    171.81935337	      0.85456380	     22.61709018	     -4.07756677	     -2.14570877	    -11.01224960	    -13.81688895	    -36.37090350	    137.04520466	     85.85439539	     -9.26944437	      4.88449297
      5.18333333	      1.83314669	    -11.44438436	     93.95028168	      0.23200959	      0.69566255	      0.68360356	     10.94187764	     -1.41211392	     -6.95893657	      4.51924554	      0.07887571	      4.65024745	      2.46216481	      0.00000000	     13.42048746	     -1.90481941	    -12.39361254	      7.62367676	      0.13305826	     17.81229262	     11.50387994	      0.00000000	     -0.14766656	      0.70384627	     -0.24598340	     -0.27423158	      0.93611554	     -0.26135736	     -0.24260140	      1.71133182	     -0.26135736	     -0.16876812	      1.71133182	     -0.21523547	     -0.13712317	      1.43528331	     -0.19986151	     -0.08437667	      1.09025787	     -0.18448755	     -1.05476750	      7.96204977	     -1.36808586	      0.00000000	      0.00000000	     24.76692820	    -11.49517308	     -0.85849914	     15.18834550	    -12.34408878	    171.97802539	      0.92448939	     22.36579902	     -4.40833600	     -1.78716340	    -11.85885725	    -13.56956081	    -37.05124606	    136.82967272	     86.05343644	     -9.33497095	      6.17015675
